<svg xmlns="http://www.w3.org/2000/svg" xmlns:xlink="http://www.w3.org/1999/xlink" xmlns:lucid="lucid" width="1680" height="1231"><g transform="translate(0 0)" lucid:page-tab-id="0_0"><path d="M0 0h3140v1591.64H0z" fill="#fff"/><path d="M540.5 245a5 5 0 0 1 5-5H855a5 5 0 0 1 5 5v222a5 5 0 0 1-5 5H545.5a5 5 0 0 1-5-5z" fill="#fff"/><path d="M540.5 280v-35a5 5 0 0 1 5-5H855a5 5 0 0 1 5 5v35" fill="#ccc"/><path d="M540.5 245a5 5 0 0 1 5-5H855a5 5 0 0 1 5 5v222a5 5 0 0 1-5 5H545.5a5 5 0 0 1-5-5zM540.5 280H860M600.5 280v192M730.25 280v192" stroke="#333" fill="none"/><use xlink:href="#a" transform="matrix(1,0,0,1,550.5,240) translate(0 23.6)"/><use xlink:href="#b" transform="matrix(1,0,0,1,545.5,282.5) translate(13 17.1)"/><use xlink:href="#c" transform="matrix(1,0,0,1,605.5,282.5) translate(0 17.1)"/><use xlink:href="#d" transform="matrix(1,0,0,1,735.25,282.5) translate(0 17.1)"/><use xlink:href="#e" transform="matrix(1,0,0,1,545.5,314.5) translate(13.524999999999999 17.1)"/><use xlink:href="#f" transform="matrix(1,0,0,1,605.5,314.5) translate(0 17.1)"/><use xlink:href="#g" transform="matrix(1,0,0,1,735.25,314.5) translate(0 17.1)"/><use xlink:href="#e" transform="matrix(1,0,0,1,545.5,346.5) translate(13.524999999999999 17.1)"/><use xlink:href="#h" transform="matrix(1,0,0,1,605.5,346.5) translate(0 17.1)"/><use xlink:href="#g" transform="matrix(1,0,0,1,735.25,346.5) translate(0 17.1)"/><use xlink:href="#i" transform="matrix(1,0,0,1,605.5,378.5) translate(0 17.1)"/><use xlink:href="#j" transform="matrix(1,0,0,1,735.25,378.5) translate(0 17.1)"/><use xlink:href="#k" transform="matrix(1,0,0,1,605.5,410.5) translate(0 17.1)"/><use xlink:href="#g" transform="matrix(1,0,0,1,735.25,410.5) translate(0 17.1)"/><use xlink:href="#l" transform="matrix(1,0,0,1,605.5,442.5) translate(0 17.1)"/><use xlink:href="#m" transform="matrix(1,0,0,1,735.25,442.5) translate(0 17.1)"/><path d="M879.9 328h88.35a12 12 0 0 0 12-12v-68.12a12 12 0 0 1 12-12h107.7a.06.06 0 0 1 .05.06.06.06 0 0 0 .06.06h19.44" stroke="#333" fill="none"/><path d="M860.72 318l20 10-20 10" stroke="#333" fill="#fff" fill-opacity="0"/><path d="M860.72 328h20M1119.5 226v20M1139.5 236h-20" stroke="#333" fill="#fff"/><path d="M1140 185a5 5 0 0 1 5-5h370a5 5 0 0 1 5 5v190a5 5 0 0 1-5 5h-370a5 5 0 0 1-5-5z" fill="#fff"/><path d="M1140 220v-35a5 5 0 0 1 5-5h370a5 5 0 0 1 5 5v35" fill="#ccc"/><path d="M1140 185a5 5 0 0 1 5-5h370a5 5 0 0 1 5 5v190a5 5 0 0 1-5 5h-370a5 5 0 0 1-5-5zM1140 220h380M1200 220v160M1360 220v160" stroke="#333" fill="none"/><use xlink:href="#n" transform="matrix(1,0,0,1,1150,180) translate(0 23.6)"/><use xlink:href="#b" transform="matrix(1,0,0,1,1145,222.5) translate(13 17.1)"/><use xlink:href="#c" transform="matrix(1,0,0,1,1205,222.5) translate(0 17.1)"/><use xlink:href="#d" transform="matrix(1,0,0,1,1365,222.5) translate(0 17.1)"/><use xlink:href="#o" transform="matrix(1,0,0,1,1205,254.5) translate(0 17.1)"/><use xlink:href="#j" transform="matrix(1,0,0,1,1365,254.5) translate(0 17.1)"/><use xlink:href="#p" transform="matrix(1,0,0,1,1205,286.5) translate(0 17.1)"/><use xlink:href="#j" transform="matrix(1,0,0,1,1365,286.5) translate(0 17.1)"/><use xlink:href="#q" transform="matrix(1,0,0,1,1205,318.5) translate(0 17.1)"/><use xlink:href="#r" transform="matrix(1,0,0,1,1365,318.5) translate(0 17.1)"/><use xlink:href="#s" transform="matrix(1,0,0,1,1205,350.5) translate(0 17.1)"/><use xlink:href="#m" transform="matrix(1,0,0,1,1365,350.5) translate(0 17.1)"/><path d="M540.5 585a5 5 0 0 1 5-5H1095a5 5 0 0 1 5 5v222a5 5 0 0 1-5 5H545.5a5 5 0 0 1-5-5z" fill="#fff"/><path d="M540.5 620v-35a5 5 0 0 1 5-5H1095a5 5 0 0 1 5 5v35" fill="#ccc"/><path d="M540.5 585a5 5 0 0 1 5-5H1095a5 5 0 0 1 5 5v222a5 5 0 0 1-5 5H545.5a5 5 0 0 1-5-5zM540.5 620H1100M678.78 620v192M850.25 620v192" stroke="#333" fill="none"/><use xlink:href="#t" transform="matrix(1,0,0,1,550.5,580) translate(0 23.6)"/><use xlink:href="#b" transform="matrix(1,0,0,1,545.5,622.5) translate(52.5 17.1)"/><use xlink:href="#c" transform="matrix(1,0,0,1,683.7798345758615,622.5) translate(0 17.1)"/><use xlink:href="#u" transform="matrix(1,0,0,1,855.25,622.5) translate(0 17.1)"/><use xlink:href="#e" transform="matrix(1,0,0,1,545.5,654.5) translate(53.025 17.1)"/><use xlink:href="#v" transform="matrix(1,0,0,1,683.7798345758615,654.5) translate(0 17.1)"/><use xlink:href="#g" transform="matrix(1,0,0,1,855.25,654.5) translate(0 17.1)"/><use xlink:href="#e" transform="matrix(1,0,0,1,545.5,686.5) translate(53.025 17.1)"/><use xlink:href="#w" transform="matrix(1,0,0,1,683.7798345758615,686.5) translate(0 17.1)"/><use xlink:href="#u" transform="matrix(1,0,0,1,855.25,686.5) translate(0 17.1)"/><use xlink:href="#x" transform="matrix(1,0,0,1,683.7798345758615,718.5) translate(0 17.1)"/><use xlink:href="#u" transform="matrix(1,0,0,1,855.25,718.5) translate(0 17.1)"/><use xlink:href="#y" transform="matrix(1,0,0,1,683.7798345758615,750.5) translate(0 17.1)"/><use xlink:href="#g" transform="matrix(1,0,0,1,855.25,750.5) translate(0 17.1)"/><use xlink:href="#z" transform="matrix(1,0,0,1,683.7798345758615,782.5) translate(0 17.1)"/><use xlink:href="#A" transform="matrix(1,0,0,1,855.25,782.5) translate(0 17.1)"/><path d="M453.15 76a8 8 0 0 1 8-8h836.75a8 8 0 0 1 8 8v25.16a8 8 0 0 1-8 8H461.15a8 8 0 0 1-8-8z" stroke="#000" stroke-opacity="0" stroke-width="2" fill="#fff" fill-opacity="0"/><use xlink:href="#B" transform="matrix(1,0,0,1,457.1465527853429,71.99999999994924) translate(230.0174074074074 25.782777777777778)"/><use xlink:href="#C" transform="matrix(1,0,0,1,457.1465527853429,71.99999999994924) translate(423.9161728395062 25.782777777777778)"/><use xlink:href="#D" transform="matrix(1,0,0,1,457.1465527853429,71.99999999994924) translate(468.63962962962967 25.782777777777778)"/><path d="M499.82 107.8h771.38M499.84 107.8h-1.02" stroke="#a9afb8" stroke-width="2" fill="none"/><path d="M1272.2 108.8h-1.02v-2h1.02z" stroke="#a9afb8" stroke-width=".05" fill="#a9afb8"/><path d="M453.15 117.16a8 8 0 0 1 8-8h837.7a8 8 0 0 1 8 8V120a8 8 0 0 1-8 8h-837.7a8 8 0 0 1-8-8z" stroke="#000" stroke-opacity="0" stroke-width="2" fill="#fff" fill-opacity="0"/><use xlink:href="#E" transform="matrix(1,0,0,1,457.1465527853434,113.15522395684805) translate(292.6586111111111 14.917037037037037)"/><use xlink:href="#F" transform="matrix(1,0,0,1,457.1465527853434,113.15522395684805) translate(345.345853909465 14.917037037037037)"/><use xlink:href="#G" transform="matrix(1,0,0,1,457.1465527853434,113.15522395684805) translate(409.0804218106996 14.917037037037037)"/><use xlink:href="#H" transform="matrix(1,0,0,1,457.1465527853434,113.15522395684805) translate(421.5299074074074 14.917037037037037)"/><use xlink:href="#I" transform="matrix(1,0,0,1,457.1465527853434,113.15522395684805) translate(500.47579218106995 14.917037037037037)"/><use xlink:href="#J" transform="matrix(1,0,0,1,457.1465527853434,113.15522395684805) translate(525.9696193415638 14.917037037037037)"/><path d="M540 931.8a5 5 0 0 1 5-5h310a5 5 0 0 1 5 5v222a5 5 0 0 1-5 5H545a5 5 0 0 1-5-5z" fill="#fff"/><path d="M540 966.8v-35a5 5 0 0 1 5-5h310a5 5 0 0 1 5 5v35" fill="#ccc"/><path d="M540 931.8a5 5 0 0 1 5-5h310a5 5 0 0 1 5 5v222a5 5 0 0 1-5 5H545a5 5 0 0 1-5-5zM540 966.8h320M600 966.8v192M730 966.8v192" stroke="#333" fill="none"/><use xlink:href="#K" transform="matrix(1,0,0,1,550,926.7890663807241) translate(0 23.6)"/><use xlink:href="#b" transform="matrix(1,0,0,1,545,969.2890663807241) translate(13 17.1)"/><use xlink:href="#L" transform="matrix(1,0,0,1,605,969.2890663807241) translate(0 17.1)"/><use xlink:href="#u" transform="matrix(1,0,0,1,735,969.2890663807241) translate(0 17.1)"/><use xlink:href="#e" transform="matrix(1,0,0,1,545,1001.2890663807241) translate(13.524999999999999 17.1)"/><use xlink:href="#f" transform="matrix(1,0,0,1,605,1001.2890663807241) translate(0 17.1)"/><use xlink:href="#g" transform="matrix(1,0,0,1,735,1001.2890663807241) translate(0 17.1)"/><use xlink:href="#p" transform="matrix(1,0,0,1,605,1033.289066380724) translate(0 17.1)"/><use xlink:href="#j" transform="matrix(1,0,0,1,735,1033.289066380724) translate(0 17.1)"/><use xlink:href="#M" transform="matrix(1,0,0,1,605,1065.289066380724) translate(0 17.1)"/><use xlink:href="#r" transform="matrix(1,0,0,1,735,1065.289066380724) translate(0 17.1)"/><use xlink:href="#N" transform="matrix(1,0,0,1,605,1097.289066380724) translate(0 17.1)"/><use xlink:href="#g" transform="matrix(1,0,0,1,735,1097.289066380724) translate(0 17.1)"/><use xlink:href="#O" transform="matrix(1,0,0,1,605,1129.289066380724) translate(0 17.1)"/><use xlink:href="#m" transform="matrix(1,0,0,1,735,1129.289066380724) translate(0 17.1)"/><path d="M520.6 667.95H512a12 12 0 0 1-12-12V308a12 12 0 0 1 12-12h8" stroke="#333" fill="none"/><path d="M539.78 677.95l-20-10 20-10" stroke="#333" fill="#fff" fill-opacity="0"/><path d="M539.78 667.95h-20M520 286v20M540 296h-20" stroke="#333" fill="#fff"/><path d="M520.6 700h-9.1a12 12 0 0 0-12 12v258.8a12 12 0 0 0 12 12h8" stroke="#333" fill="none"/><path d="M539.78 710l-20-10 20-10" stroke="#333" fill="#fff" fill-opacity="0"/><path d="M539.78 700h-20M519.5 972.8v20M539.5 982.8h-20" stroke="#333" fill="#fff"/><path d="M879.9 1014.8H1608a12 12 0 0 0 12-12V247.87a12 12 0 0 0-12-12h-67.5" stroke="#333" fill="none"/><path d="M860.72 1004.8l20 10-20 10" stroke="#333" fill="#fff" fill-opacity="0"/><path d="M860.72 1014.8h20M1540.5 245.88v-20M1520.5 235.88h20" stroke="#333" fill="#fff"/><path d="M40 185a5 5 0 0 1 5-5h309.5a5 5 0 0 1 5 5v190a5 5 0 0 1-5 5H45a5 5 0 0 1-5-5z" fill="#fff"/><path d="M40 220v-35a5 5 0 0 1 5-5h309.5a5 5 0 0 1 5 5v35" fill="#ccc"/><path d="M40 185a5 5 0 0 1 5-5h309.5a5 5 0 0 1 5 5v190a5 5 0 0 1-5 5H45a5 5 0 0 1-5-5zM40 220h319.5M100 220v160M229.75 220v160" stroke="#333" fill="none"/><use xlink:href="#P" transform="matrix(1,0,0,1,50,180) translate(0 23.6)"/><use xlink:href="#b" transform="matrix(1,0,0,1,45,222.5) translate(13 17.1)"/><use xlink:href="#c" transform="matrix(1,0,0,1,105,222.5) translate(0 17.1)"/><use xlink:href="#d" transform="matrix(1,0,0,1,234.75,222.5) translate(0 17.1)"/><use xlink:href="#Q" transform="matrix(1,0,0,1,105,254.5) translate(0 17.1)"/><use xlink:href="#u" transform="matrix(1,0,0,1,234.75,254.5) translate(0 17.1)"/><use xlink:href="#R" transform="matrix(1,0,0,1,105,286.5) translate(0 17.1)"/><use xlink:href="#g" transform="matrix(1,0,0,1,234.75,286.5) translate(0 17.1)"/><use xlink:href="#S" transform="matrix(1,0,0,1,105,318.5) translate(0 17.1)"/><use xlink:href="#j" transform="matrix(1,0,0,1,234.75,318.5) translate(0 17.1)"/><use xlink:href="#T" transform="matrix(1,0,0,1,105,350.5) translate(0 17.1)"/><g><use xlink:href="#g" transform="matrix(1,0,0,1,234.75,350.5) translate(0 17.1)"/></g><path d="M379.4 236H438a12 12 0 0 1 12 12v100a12 12 0 0 0 12 12h58.6" stroke="#333" fill="none"/><path d="M360.22 226l20 10-20 10" stroke="#333" fill="#fff" fill-opacity="0"/><path d="M360.22 236h20" stroke="#333" fill="#fff"/><path d="M539.78 370l-20-10 20-10" stroke="#333" fill="#fff" fill-opacity="0"/><path d="M539.78 360h-20" stroke="#333" fill="#fff"/><defs><path fill="#333" d="M44-68c0 29 11 47 38 47 30 0 42-19 51-41l28 9C148-21 126 4 82 4 31 4 10-29 12-85c3-77 74-140 146-93 12 8 15 23 18 40l-31 5c-1-22-13-36-36-36-52 0-65 49-65 101" id="U"/><path fill="#333" d="M165-48c-4 18 1 34 23 27l-3 20c-29 8-62 0-52-35h-2C116-14 99 4 63 4 30 4 8-16 8-49c0-68 71-67 138-67 10-26 0-56-31-54-26 1-42 9-47 31l-32-5c8-67 160-71 144 15-5 28-9 54-15 81zM42-50c3 52 80 24 89-6 7-12 7-24 11-38-47 1-103-4-100 44" id="V"/><path fill="#333" d="M55-144c13 50 104 24 104 88C159 21 15 23 1-39l26-10c6 40 102 42 102-4-13-50-104-23-104-87 0-71 143-71 148-8l-29 4c-5-35-85-37-89 0" id="W"/><path fill="#333" d="M67-158c15-20 31-36 64-36 94 0 33 127 27 194h-32l25-140c3-38-53-32-70-12C52-117 51-51 37 0H6l51-261h31" id="X"/><path fill="#333" d="M-28 44V31h207v13H-28" id="Y"/><path fill="#333" d="M248-111c6-24 9-61-24-58-72 9-57 108-77 169h-31l26-142c3-37-50-30-64-10C52-115 50-51 37 0H6l36-190h30c-1 10-6 24-4 32 13-43 101-52 105 5 13-22 29-41 61-41 90 0 28 129 23 194h-31" id="Z"/><path fill="#333" d="M50-231l6-30h32l-6 30H50zM6 0l37-190h31L37 0H6" id="aa"/><path fill="#333" d="M67-158c22-48 132-52 116 29L158 0h-32l25-140c3-38-53-32-70-12C52-117 51-52 38 0H6l36-190h30" id="ab"/><path fill="#333" d="M111-194c62-3 86 47 72 106H45c-7 38 6 69 45 68 27-1 43-14 53-32l24 11C152-15 129 4 87 4 38 3 12-23 12-71c0-70 32-119 99-123zm44 81c14-66-71-72-95-28-4 8-8 17-11 28h106" id="ac"/><g id="a"><use transform="matrix(0.05,0,0,0.05,0,0)" xlink:href="#U"/><use transform="matrix(0.05,0,0,0.05,9,0)" xlink:href="#V"/><use transform="matrix(0.05,0,0,0.05,19,0)" xlink:href="#W"/><use transform="matrix(0.05,0,0,0.05,28,0)" xlink:href="#X"/><use transform="matrix(0.05,0,0,0.05,38,0)" xlink:href="#Y"/><use transform="matrix(0.05,0,0,0.05,48,0)" xlink:href="#Z"/><use transform="matrix(0.05,0,0,0.05,62.95,0)" xlink:href="#V"/><use transform="matrix(0.05,0,0,0.05,72.95,0)" xlink:href="#U"/><use transform="matrix(0.05,0,0,0.05,81.95,0)" xlink:href="#X"/><use transform="matrix(0.05,0,0,0.05,91.95,0)" xlink:href="#aa"/><use transform="matrix(0.05,0,0,0.05,95.9,0)" xlink:href="#ab"/><use transform="matrix(0.05,0,0,0.05,105.9,0)" xlink:href="#ac"/><use transform="matrix(0.05,0,0,0.05,115.9,0)" xlink:href="#W"/></g><path d="M30-248c87 1 191-15 191 75 0 78-77 80-158 76V0H30v-248zm33 125c57 0 124 11 124-50 0-59-68-47-124-48v98" id="ad"/><path d="M194 0L95-120 63-95V0H30v-248h33v124l119-124h40L117-140 236 0h-42" id="ae"/><g id="b"><use transform="matrix(0.05,0,0,0.05,0,0)" xlink:href="#ad"/><use transform="matrix(0.05,0,0,0.05,12,0)" xlink:href="#ae"/></g><path fill="#333" d="M133-28C103 26-5 8 13-77c13-62 24-115 90-117 29-1 46 15 56 35l19-102h32L160 0h-30zM45-64c-2 27 10 43 35 43 54-1 69-50 69-103 0-29-15-46-42-46-53-1-58 58-62 106" id="af"/><g id="c"><use transform="matrix(0.05,0,0,0.05,0,0)" xlink:href="#aa"/><use transform="matrix(0.05,0,0,0.05,3.95,0)" xlink:href="#af"/></g><path fill="#333" d="M66-151c12-25 30-51 66-40l-6 26C45-176 58-65 38 0H6l36-190h30" id="ag"/><path fill="#333" d="M6 0l50-261h32L37 0H6" id="ah"/><g id="d"><use transform="matrix(0.05,0,0,0.05,0,0)" xlink:href="#W"/><use transform="matrix(0.05,0,0,0.05,9,0)" xlink:href="#ac"/><use transform="matrix(0.05,0,0,0.05,19,0)" xlink:href="#ag"/><use transform="matrix(0.05,0,0,0.05,24.95,0)" xlink:href="#aa"/><use transform="matrix(0.05,0,0,0.05,28.899999999999995,0)" xlink:href="#V"/><use transform="matrix(0.05,0,0,0.05,38.9,0)" xlink:href="#ah"/></g><path d="M63-220v92h138v28H63V0H30v-248h175v28H63" id="ai"/><g id="e"><use transform="matrix(0.05,0,0,0.05,0,0)" xlink:href="#ai"/><use transform="matrix(0.05,0,0,0.05,10.950000000000001,0)" xlink:href="#ae"/></g><path fill="#333" d="M68-162c25-46 127-43 121 31C183-60 169 1 98 4 69 5 53-11 43-31L36 0H5l52-261h31zm88 36c2-27-9-43-34-43-55 0-70 51-70 103 0 29 15 45 43 46 52 0 58-58 61-106" id="aj"/><path fill="#333" d="M127 0L80-88 50-66 37 0H6l51-261h31L57-100l99-90h39l-93 82L161 0h-34" id="ak"/><g id="f"><use transform="matrix(0.05,0,0,0.05,0,0)" xlink:href="#aj"/><use transform="matrix(0.05,0,0,0.05,10,0)" xlink:href="#V"/><use transform="matrix(0.05,0,0,0.05,20,0)" xlink:href="#ab"/><use transform="matrix(0.05,0,0,0.05,30,0)" xlink:href="#ak"/><use transform="matrix(0.05,0,0,0.05,39,0)" xlink:href="#Y"/><use transform="matrix(0.05,0,0,0.05,49,0)" xlink:href="#aa"/><use transform="matrix(0.05,0,0,0.05,52.95,0)" xlink:href="#af"/></g><path fill="#333" d="M51-54c-9 22 5 41 31 30L79-1C43 14 10-4 19-52l22-115H19l5-23h22l19-43h21l-9 43h35l-4 23H73" id="al"/><g id="g"><use transform="matrix(0.05,0,0,0.05,0,0)" xlink:href="#aa"/><use transform="matrix(0.05,0,0,0.05,3.95,0)" xlink:href="#ab"/><use transform="matrix(0.05,0,0,0.05,13.949999999999998,0)" xlink:href="#al"/></g><path fill="#333" d="M67-162c32-53 139-36 121 50C175-51 163 2 97 4 68 4 52-11 42-31 38 6 28 39 22 75H-9l50-265h29c-1 10 0 20-3 28zm89 36c0-26-10-43-35-43-54 0-67 50-69 103-1 29 14 45 42 46 53 0 62-58 62-106" id="am"/><g id="h"><use transform="matrix(0.05,0,0,0.05,0,0)" xlink:href="#ag"/><use transform="matrix(0.05,0,0,0.05,5.95,0)" xlink:href="#ac"/><use transform="matrix(0.05,0,0,0.05,15.949999999999998,0)" xlink:href="#am"/><use transform="matrix(0.05,0,0,0.05,25.950000000000003,0)" xlink:href="#V"/><use transform="matrix(0.05,0,0,0.05,35.95,0)" xlink:href="#aa"/><use transform="matrix(0.05,0,0,0.05,39.900000000000006,0)" xlink:href="#ag"/><use transform="matrix(0.05,0,0,0.05,45.85000000000001,0)" xlink:href="#ac"/><use transform="matrix(0.05,0,0,0.05,55.85,0)" xlink:href="#ag"/><use transform="matrix(0.05,0,0,0.05,61.80000000000001,0)" xlink:href="#Y"/><use transform="matrix(0.05,0,0,0.05,71.80000000000001,0)" xlink:href="#aa"/><use transform="matrix(0.05,0,0,0.05,75.75000000000001,0)" xlink:href="#af"/></g><path fill="#333" d="M30-147c31-64 166-65 159 27C183-49 158 1 86 4 9 8 1-88 30-147zM88-20c53 0 68-48 68-100 0-31-11-51-44-50-52 1-68 46-68 97 0 32 13 53 44 53" id="an"/><g id="i"><use transform="matrix(0.05,0,0,0.05,0,0)" xlink:href="#Z"/><use transform="matrix(0.05,0,0,0.05,14.950000000000001,0)" xlink:href="#an"/><use transform="matrix(0.05,0,0,0.05,24.950000000000003,0)" xlink:href="#af"/><use transform="matrix(0.05,0,0,0.05,34.95,0)" xlink:href="#ac"/><use transform="matrix(0.05,0,0,0.05,44.95,0)" xlink:href="#ah"/></g><path fill="#333" d="M89 0H52L20-190h33L74-25l89-165h34" id="ao"/><path fill="#333" d="M17-49c1-102 45-165 103-212h30C92-210 49-145 49-46 49 4 63 43 85 75H54C30 43 18 2 17-49" id="ap"/><path fill="#333" d="M9 0l6-27h63l36-188-63 39 6-31 66-41h29L110-27h60l-5 27H9" id="aq"/><path fill="#333" d="M16-82c0-90 25-169 113-169 48 0 68 33 68 82C197-79 170 4 84 4 37 4 16-31 16-82zm30 5c0 32 11 55 40 55 69 0 76-79 80-149 2-32-10-55-39-55-69 0-81 81-81 149" id="ar"/><path fill="#333" d="M98-137C97-35 54 29-4 75h-31C23 23 67-41 67-140c0-50-15-89-37-121h31c24 32 36 73 37 124" id="as"/><g id="j"><use transform="matrix(0.05,0,0,0.05,0,0)" xlink:href="#ao"/><use transform="matrix(0.05,0,0,0.05,9,0)" xlink:href="#V"/><use transform="matrix(0.05,0,0,0.05,19,0)" xlink:href="#ag"/><use transform="matrix(0.05,0,0,0.05,24.95,0)" xlink:href="#U"/><use transform="matrix(0.05,0,0,0.05,33.95,0)" xlink:href="#X"/><use transform="matrix(0.05,0,0,0.05,43.95,0)" xlink:href="#V"/><use transform="matrix(0.05,0,0,0.05,53.95,0)" xlink:href="#ag"/><use transform="matrix(0.05,0,0,0.05,59.900000000000006,0)" xlink:href="#ap"/><use transform="matrix(0.05,0,0,0.05,65.85000000000001,0)" xlink:href="#aq"/><use transform="matrix(0.05,0,0,0.05,75.85000000000001,0)" xlink:href="#ar"/><use transform="matrix(0.05,0,0,0.05,85.85000000000001,0)" xlink:href="#ar"/><use transform="matrix(0.05,0,0,0.05,95.85000000000001,0)" xlink:href="#as"/></g><path fill="#333" d="M67 3c-93-2-31-127-26-193h32L48-50c-3 39 53 32 70 12 30-34 30-101 43-152h32L157 0h-30c1-10 6-24 4-33-14 20-29 37-64 36" id="at"/><g id="k"><use transform="matrix(0.05,0,0,0.05,0,0)" xlink:href="#U"/><use transform="matrix(0.05,0,0,0.05,9,0)" xlink:href="#at"/><use transform="matrix(0.05,0,0,0.05,19,0)" xlink:href="#ag"/><use transform="matrix(0.05,0,0,0.05,24.95,0)" xlink:href="#ag"/><use transform="matrix(0.05,0,0,0.05,30.899999999999995,0)" xlink:href="#ac"/><use transform="matrix(0.05,0,0,0.05,40.9,0)" xlink:href="#ab"/><use transform="matrix(0.05,0,0,0.05,50.9,0)" xlink:href="#al"/><use transform="matrix(0.05,0,0,0.05,55.900000000000006,0)" xlink:href="#Y"/><use transform="matrix(0.05,0,0,0.05,65.9,0)" xlink:href="#U"/><use transform="matrix(0.05,0,0,0.05,74.9,0)" xlink:href="#V"/><use transform="matrix(0.05,0,0,0.05,84.9,0)" xlink:href="#W"/><use transform="matrix(0.05,0,0,0.05,93.9,0)" xlink:href="#X"/></g><path fill="#333" d="M198-190L69 30C53 58 25 83-20 72c4-11-1-27 19-22 33-1 43-29 59-52L20-190h32L79-34l84-156h35" id="au"/><g id="l"><use transform="matrix(0.05,0,0,0.05,0,0)" xlink:href="#Z"/><use transform="matrix(0.05,0,0,0.05,14.950000000000001,0)" xlink:href="#an"/><use transform="matrix(0.05,0,0,0.05,24.950000000000003,0)" xlink:href="#at"/><use transform="matrix(0.05,0,0,0.05,34.95,0)" xlink:href="#ab"/><use transform="matrix(0.05,0,0,0.05,44.95,0)" xlink:href="#al"/><use transform="matrix(0.05,0,0,0.05,49.95,0)" xlink:href="#Y"/><use transform="matrix(0.05,0,0,0.05,59.95,0)" xlink:href="#af"/><use transform="matrix(0.05,0,0,0.05,69.95,0)" xlink:href="#V"/><use transform="matrix(0.05,0,0,0.05,79.95,0)" xlink:href="#au"/></g><g id="m"><use transform="matrix(0.05,0,0,0.05,0,0)" xlink:href="#af"/><use transform="matrix(0.05,0,0,0.05,10,0)" xlink:href="#V"/><use transform="matrix(0.05,0,0,0.05,20,0)" xlink:href="#al"/><use transform="matrix(0.05,0,0,0.05,25,0)" xlink:href="#ac"/></g><g id="n"><use transform="matrix(0.05,0,0,0.05,0,0)" xlink:href="#aj"/><use transform="matrix(0.05,0,0,0.05,10,0)" xlink:href="#V"/><use transform="matrix(0.05,0,0,0.05,20,0)" xlink:href="#ab"/><use transform="matrix(0.05,0,0,0.05,30,0)" xlink:href="#ak"/><use transform="matrix(0.05,0,0,0.05,39,0)" xlink:href="#W"/></g><g id="o"><use transform="matrix(0.05,0,0,0.05,0,0)" xlink:href="#ab"/><use transform="matrix(0.05,0,0,0.05,10,0)" xlink:href="#V"/><use transform="matrix(0.05,0,0,0.05,20,0)" xlink:href="#Z"/><use transform="matrix(0.05,0,0,0.05,34.95,0)" xlink:href="#ac"/></g><path fill="#333" d="M188 0h-37l-8-164L71 0H34L18-190h31l8 164 75-164h34l8 164 74-164h31" id="av"/><g id="p"><use transform="matrix(0.05,0,0,0.05,0,0)" xlink:href="#an"/><use transform="matrix(0.05,0,0,0.05,10,0)" xlink:href="#av"/><use transform="matrix(0.05,0,0,0.05,22.950000000000003,0)" xlink:href="#ab"/><use transform="matrix(0.05,0,0,0.05,32.95,0)" xlink:href="#ac"/><use transform="matrix(0.05,0,0,0.05,42.95,0)" xlink:href="#ag"/></g><g id="q"><use transform="matrix(0.05,0,0,0.05,0,0)" xlink:href="#aa"/><use transform="matrix(0.05,0,0,0.05,3.95,0)" xlink:href="#W"/><use transform="matrix(0.05,0,0,0.05,12.949999999999998,0)" xlink:href="#Y"/><use transform="matrix(0.05,0,0,0.05,22.95,0)" xlink:href="#aa"/><use transform="matrix(0.05,0,0,0.05,26.899999999999995,0)" xlink:href="#ab"/><use transform="matrix(0.05,0,0,0.05,36.9,0)" xlink:href="#al"/><use transform="matrix(0.05,0,0,0.05,41.9,0)" xlink:href="#ac"/><use transform="matrix(0.05,0,0,0.05,51.900000000000006,0)" xlink:href="#ag"/><use transform="matrix(0.05,0,0,0.05,57.85,0)" xlink:href="#ab"/><use transform="matrix(0.05,0,0,0.05,67.85,0)" xlink:href="#V"/><use transform="matrix(0.05,0,0,0.05,77.85,0)" xlink:href="#al"/><use transform="matrix(0.05,0,0,0.05,82.85,0)" xlink:href="#aa"/><use transform="matrix(0.05,0,0,0.05,86.8,0)" xlink:href="#an"/><use transform="matrix(0.05,0,0,0.05,96.8,0)" xlink:href="#ab"/><use transform="matrix(0.05,0,0,0.05,106.80000000000001,0)" xlink:href="#V"/><use transform="matrix(0.05,0,0,0.05,116.80000000000001,0)" xlink:href="#ah"/></g><g id="r"><use transform="matrix(0.05,0,0,0.05,0,0)" xlink:href="#aj"/><use transform="matrix(0.05,0,0,0.05,10,0)" xlink:href="#an"/><use transform="matrix(0.05,0,0,0.05,20,0)" xlink:href="#an"/><use transform="matrix(0.05,0,0,0.05,30,0)" xlink:href="#ah"/></g><g id="s"><use transform="matrix(0.05,0,0,0.05,0,0)" xlink:href="#U"/><use transform="matrix(0.05,0,0,0.05,9,0)" xlink:href="#ag"/><use transform="matrix(0.05,0,0,0.05,14.949999999999998,0)" xlink:href="#ac"/><use transform="matrix(0.05,0,0,0.05,24.95,0)" xlink:href="#V"/><use transform="matrix(0.05,0,0,0.05,34.95,0)" xlink:href="#al"/><use transform="matrix(0.05,0,0,0.05,39.95,0)" xlink:href="#ac"/><use transform="matrix(0.05,0,0,0.05,49.95,0)" xlink:href="#af"/><use transform="matrix(0.05,0,0,0.05,59.95,0)" xlink:href="#Y"/><use transform="matrix(0.05,0,0,0.05,69.95,0)" xlink:href="#af"/><use transform="matrix(0.05,0,0,0.05,79.95,0)" xlink:href="#V"/><use transform="matrix(0.05,0,0,0.05,89.95,0)" xlink:href="#al"/><use transform="matrix(0.05,0,0,0.05,94.95,0)" xlink:href="#ac"/></g><g id="t"><use transform="matrix(0.05,0,0,0.05,0,0)" xlink:href="#al"/><use transform="matrix(0.05,0,0,0.05,5,0)" xlink:href="#ag"/><use transform="matrix(0.05,0,0,0.05,10.95,0)" xlink:href="#V"/><use transform="matrix(0.05,0,0,0.05,20.95,0)" xlink:href="#ab"/><use transform="matrix(0.05,0,0,0.05,30.950000000000003,0)" xlink:href="#W"/><use transform="matrix(0.05,0,0,0.05,39.95,0)" xlink:href="#V"/><use transform="matrix(0.05,0,0,0.05,49.95,0)" xlink:href="#U"/><use transform="matrix(0.05,0,0,0.05,58.95,0)" xlink:href="#al"/><use transform="matrix(0.05,0,0,0.05,63.95,0)" xlink:href="#aa"/><use transform="matrix(0.05,0,0,0.05,67.9,0)" xlink:href="#an"/><use transform="matrix(0.05,0,0,0.05,77.9,0)" xlink:href="#ab"/><use transform="matrix(0.05,0,0,0.05,87.9,0)" xlink:href="#W"/></g><path fill="#333" d="M124 0L87-78 21 0h-35l86-98-46-92h33l34 74 61-74h37l-83 92 50 98h-34" id="aw"/><g id="u"><use transform="matrix(0.05,0,0,0.05,0,0)" xlink:href="#al"/><use transform="matrix(0.05,0,0,0.05,5,0)" xlink:href="#ac"/><use transform="matrix(0.05,0,0,0.05,15,0)" xlink:href="#aw"/><use transform="matrix(0.05,0,0,0.05,24,0)" xlink:href="#al"/></g><g id="v"><use transform="matrix(0.05,0,0,0.05,0,0)" xlink:href="#U"/><use transform="matrix(0.05,0,0,0.05,9,0)" xlink:href="#V"/><use transform="matrix(0.05,0,0,0.05,19,0)" xlink:href="#W"/><use transform="matrix(0.05,0,0,0.05,28,0)" xlink:href="#X"/><use transform="matrix(0.05,0,0,0.05,38,0)" xlink:href="#Y"/><use transform="matrix(0.05,0,0,0.05,48,0)" xlink:href="#Z"/><use transform="matrix(0.05,0,0,0.05,62.95,0)" xlink:href="#V"/><use transform="matrix(0.05,0,0,0.05,72.95,0)" xlink:href="#U"/><use transform="matrix(0.05,0,0,0.05,81.95,0)" xlink:href="#X"/><use transform="matrix(0.05,0,0,0.05,91.95,0)" xlink:href="#aa"/><use transform="matrix(0.05,0,0,0.05,95.9,0)" xlink:href="#ab"/><use transform="matrix(0.05,0,0,0.05,105.9,0)" xlink:href="#ac"/><use transform="matrix(0.05,0,0,0.05,115.9,0)" xlink:href="#Y"/><use transform="matrix(0.05,0,0,0.05,125.9,0)" xlink:href="#aa"/><use transform="matrix(0.05,0,0,0.05,129.85,0)" xlink:href="#af"/></g><g id="w"><use transform="matrix(0.05,0,0,0.05,0,0)" xlink:href="#U"/><use transform="matrix(0.05,0,0,0.05,9,0)" xlink:href="#V"/><use transform="matrix(0.05,0,0,0.05,19,0)" xlink:href="#ag"/><use transform="matrix(0.05,0,0,0.05,24.95,0)" xlink:href="#af"/><use transform="matrix(0.05,0,0,0.05,34.95,0)" xlink:href="#Y"/><use transform="matrix(0.05,0,0,0.05,44.95,0)" xlink:href="#ab"/><use transform="matrix(0.05,0,0,0.05,54.95,0)" xlink:href="#at"/><use transform="matrix(0.05,0,0,0.05,64.95,0)" xlink:href="#Z"/><use transform="matrix(0.05,0,0,0.05,79.9,0)" xlink:href="#aj"/><use transform="matrix(0.05,0,0,0.05,89.9,0)" xlink:href="#ac"/><use transform="matrix(0.05,0,0,0.05,99.9,0)" xlink:href="#ag"/></g><g id="x"><use transform="matrix(0.05,0,0,0.05,0,0)" xlink:href="#al"/><use transform="matrix(0.05,0,0,0.05,5,0)" xlink:href="#au"/><use transform="matrix(0.05,0,0,0.05,14,0)" xlink:href="#am"/><use transform="matrix(0.05,0,0,0.05,24,0)" xlink:href="#ac"/></g><g id="y"><use transform="matrix(0.05,0,0,0.05,0,0)" xlink:href="#U"/><use transform="matrix(0.05,0,0,0.05,9,0)" xlink:href="#V"/><use transform="matrix(0.05,0,0,0.05,19,0)" xlink:href="#W"/><use transform="matrix(0.05,0,0,0.05,28,0)" xlink:href="#X"/></g><g id="z"><use transform="matrix(0.05,0,0,0.05,0,0)" xlink:href="#al"/><use transform="matrix(0.05,0,0,0.05,5,0)" xlink:href="#aa"/><use transform="matrix(0.05,0,0,0.05,8.95,0)" xlink:href="#Z"/><use transform="matrix(0.05,0,0,0.05,23.9,0)" xlink:href="#ac"/></g><g id="A"><use transform="matrix(0.05,0,0,0.05,0,0)" xlink:href="#al"/><use transform="matrix(0.05,0,0,0.05,5,0)" xlink:href="#aa"/><use transform="matrix(0.05,0,0,0.05,8.95,0)" xlink:href="#Z"/><use transform="matrix(0.05,0,0,0.05,23.9,0)" xlink:href="#ac"/><use transform="matrix(0.05,0,0,0.05,33.9,0)" xlink:href="#W"/><use transform="matrix(0.05,0,0,0.05,42.9,0)" xlink:href="#al"/><use transform="matrix(0.05,0,0,0.05,47.9,0)" xlink:href="#V"/><use transform="matrix(0.05,0,0,0.05,57.900000000000006,0)" xlink:href="#Z"/><use transform="matrix(0.05,0,0,0.05,72.85,0)" xlink:href="#am"/></g><path fill="#a9afb8" d="M24 0v-248h195v40H76v63h132v40H76v65h150V0H24" id="ax"/><path fill="#a9afb8" d="M240-174c0 40-23 61-54 70L253 0h-59l-57-94H76V0H24v-248c93 4 217-23 216 74zM76-134c48-2 112 12 112-38 0-48-66-32-112-35v73" id="ay"/><path fill="#a9afb8" d="M14-72v-43h91v43H14" id="az"/><path fill="#a9afb8" d="M147-157h-42c-8 43-13 90-29 124h71v-124zM24-33c25-41 30-96 40-157h132v157h26V72h-43V0H46v72H2V-33h22" id="aA"/><path fill="#a9afb8" d="M71-190L68-54l78-136h50V0h-45l3-136L78 0H25v-190h46" id="aB"/><path fill="#a9afb8" d="M133-34C117-15 103 5 69 4 32 3 11-16 11-54c-1-60 55-63 116-61 1-26-3-47-28-47-18 1-26 9-28 27l-52-2c7-38 36-58 82-57s74 22 75 68l1 82c-1 14 12 18 25 15v27c-30 8-71 5-69-32zm-48 3c29 0 43-24 42-57-32 0-66-3-65 30 0 17 8 27 23 27" id="aC"/><path fill="#a9afb8" d="M140-190v33H75V0H25v-190h115" id="aD"/><path fill="#a9afb8" d="M135-194c53 0 70 44 70 98 0 56-19 98-73 100-31 1-45-17-59-34 3 33 2 69 2 105H25l-1-265h48c2 10 0 23 3 31 11-24 29-35 60-35zM114-30c33 0 39-31 40-66 0-38-9-64-40-64-56 0-55 130 0 130" id="aE"/><path fill="#a9afb8" d="M153 0h-38L66-156 68 0H25v-190h66c14 50 33 95 43 149 9-54 29-100 43-149h64V0h-43l3-156" id="aF"/><g id="B"><use transform="matrix(0.0728395061728395,0,0,0.0728395061728395,0,0)" xlink:href="#ax"/><use transform="matrix(0.0728395061728395,0,0,0.0728395061728395,17.48148148148148,0)" xlink:href="#ay"/><use transform="matrix(0.0728395061728395,0,0,0.0728395061728395,36.34691358024691,0)" xlink:href="#az"/><use transform="matrix(0.0728395061728395,0,0,0.0728395061728395,45.01481481481481,0)" xlink:href="#aA"/><use transform="matrix(0.0728395061728395,0,0,0.0728395061728395,61.62222222222222,0)" xlink:href="#aB"/><use transform="matrix(0.0728395061728395,0,0,0.0728395061728395,77.71975308641976,0)" xlink:href="#aC"/><use transform="matrix(0.0728395061728395,0,0,0.0728395061728395,92.28765432098766,0)" xlink:href="#aD"/><use transform="matrix(0.0728395061728395,0,0,0.0728395061728395,103.14074074074074,0)" xlink:href="#aE"/><use transform="matrix(0.0728395061728395,0,0,0.0728395061728395,119.0925925925926,0)" xlink:href="#aC"/><use transform="matrix(0.0728395061728395,0,0,0.0728395061728395,133.6604938271605,0)" xlink:href="#aF"/><use transform="matrix(0.0728395061728395,0,0,0.0728395061728395,153.03580246913583,0)" xlink:href="#aF"/><use transform="matrix(0.0728395061728395,0,0,0.0728395061728395,172.04691358024695,0)" xlink:href="#aC"/></g><path fill="#a9afb8" d="M76-149c81-1 171-10 170 73C244 22 120-3 24 0v-248h187v40H76v59zm0 109c48-3 118 14 118-35 0-47-71-32-118-34v69" id="aG"/><path fill="#a9afb8" d="M217-43h33V72h-44V0H47v72H3V-43h28c29-54 38-131 48-205h138v205zm-50 0v-162h-46c-7 58-16 118-36 162h82" id="aH"/><g id="C"><use transform="matrix(0.0728395061728395,0,0,0.0728395061728395,0,0)" xlink:href="#aG"/><use transform="matrix(0.0728395061728395,0,0,0.0728395061728395,18.79259259259259,0)" xlink:href="#aH"/></g><path fill="#a9afb8" d="M111-30c34 0 45-22 45-58s-9-59-42-59c-34 0-45 23-45 59 0 35 10 58 42 58zm-65-95c11-34 33-56 77-56 59 0 85 31 85 92 1 63-35 89-97 93C-12 13-8-201 74-238c33-15 81-20 124-26v41c-70 13-161 1-152 98" id="aI"/><path fill="#a9afb8" d="M75-190v75h68v-75h49V0h-49v-81H75V0H25v-190h50" id="aJ"/><path fill="#a9afb8" d="M25-190h50v81c22-2 24-18 33-36l22-45h49c-19 30-32 64-55 90L180 0h-50L89-81c-3 2-9 2-14 2V0H25v-190" id="aK"/><path fill="#a9afb8" d="M110-194c64 0 96 36 96 99 0 64-35 99-97 99-61 0-95-36-95-99 0-62 34-99 96-99zm-1 164c35 0 45-28 45-65 0-40-10-65-43-65-34 0-45 26-45 65 0 36 10 65 43 65" id="aL"/><path fill="#a9afb8" d="M10-190h156v33h-53V0H63v-157H10v-33" id="aM"/><path fill="#a9afb8" d="M207-55C206 19 99-3 25 0v-190c69 5 172-21 177 47 2 30-24 34-43 44 27 3 48 13 48 44zm-50-2c0-36-48-24-82-26v52c34-2 82 10 82-26zm-7-80c0-31-45-20-75-22v45c31-3 75 10 75-23" id="aN"/><g id="D"><use transform="matrix(0.0728395061728395,0,0,0.0728395061728395,0,0)" xlink:href="#aI"/><use transform="matrix(0.0728395061728395,0,0,0.0728395061728395,16.17037037037037,0)" xlink:href="#aC"/><use transform="matrix(0.0728395061728395,0,0,0.0728395061728395,30.73827160493827,0)" xlink:href="#aJ"/><use transform="matrix(0.0728395061728395,0,0,0.0728395061728395,46.544444444444444,0)" xlink:href="#aK"/><use transform="matrix(0.0728395061728395,0,0,0.0728395061728395,59.29135802469136,0)" xlink:href="#aL"/><use transform="matrix(0.0728395061728395,0,0,0.0728395061728395,74.87901234567902,0)" xlink:href="#aF"/><use transform="matrix(0.0728395061728395,0,0,0.0728395061728395,93.89012345679012,0)" xlink:href="#aC"/><use transform="matrix(0.0728395061728395,0,0,0.0728395061728395,108.45802469135802,0)" xlink:href="#aM"/><use transform="matrix(0.0728395061728395,0,0,0.0728395061728395,120.91358024691357,0)" xlink:href="#aL"/><use transform="matrix(0.0728395061728395,0,0,0.0728395061728395,136.8654320987654,0)" xlink:href="#aN"/></g><path fill="#a9afb8" d="M185-189c-5-48-123-54-124 2 14 75 158 14 163 119 3 78-121 87-175 55-17-10-28-26-33-46l33-7c5 56 141 63 141-1 0-78-155-14-162-118-5-82 145-84 179-34 5 7 8 16 11 25" id="aO"/><path fill="#a9afb8" d="M59-47c-2 24 18 29 38 22v24C64 9 27 4 27-40v-127H5v-23h24l9-43h21v43h35v23H59v120" id="aP"/><path fill="#a9afb8" d="M100-194c63 0 86 42 84 106H49c0 40 14 67 53 68 26 1 43-12 49-29l28 8c-11 28-37 45-77 45C44 4 14-33 15-96c1-61 26-98 85-98zm52 81c6-60-76-77-97-28-3 7-6 17-6 28h103" id="aQ"/><path fill="#a9afb8" d="M115-194c55 1 70 41 70 98S169 2 115 4C84 4 66-9 55-30l1 105H24l-1-265h31l2 30c10-21 28-34 59-34zm-8 174c40 0 45-34 45-75s-6-73-45-74c-42 0-51 32-51 76 0 43 10 73 51 73" id="aR"/><path fill="#a9afb8" d="M141-36C126-15 110 5 73 4 37 3 15-17 15-53c-1-64 63-63 125-63 3-35-9-54-41-54-24 1-41 7-42 31l-33-3c5-37 33-52 76-52 45 0 72 20 72 64v82c-1 20 7 32 28 27v20c-31 9-61-2-59-35zM48-53c0 20 12 33 32 33 41-3 63-29 60-74-43 2-92-5-92 41" id="aS"/><path fill="#a9afb8" d="M117-194c89-4 53 116 60 194h-32v-121c0-31-8-49-39-48C34-167 62-67 57 0H25l-1-190h30c1 10-1 24 2 32 11-22 29-35 61-36" id="aT"/><g id="E"><use transform="matrix(0.04248971193415638,0,0,0.04248971193415638,0,0)" xlink:href="#aO"/><use transform="matrix(0.04248971193415638,0,0,0.04248971193415638,10.19753086419753,0)" xlink:href="#aP"/><use transform="matrix(0.04248971193415638,0,0,0.04248971193415638,14.446502057613166,0)" xlink:href="#aQ"/><use transform="matrix(0.04248971193415638,0,0,0.04248971193415638,22.944444444444443,0)" xlink:href="#aR"/><use transform="matrix(0.04248971193415638,0,0,0.04248971193415638,31.44238683127572,0)" xlink:href="#aS"/><use transform="matrix(0.04248971193415638,0,0,0.04248971193415638,39.940329218106996,0)" xlink:href="#aT"/></g><path fill="#a9afb8" d="M30-248c87 1 191-15 191 75 0 78-77 80-158 76V0H30v-248zm33 125c57 0 124 11 124-50 0-59-68-47-124-48v98" id="aU"/><path fill="#a9afb8" d="M100-194c62-1 85 37 85 99 1 63-27 99-86 99S16-35 15-95c0-66 28-99 85-99zM99-20c44 1 53-31 53-75 0-43-8-75-51-75s-53 32-53 75 10 74 51 75" id="aV"/><path fill="#a9afb8" d="M135-143c-3-34-86-38-87 0 15 53 115 12 119 90S17 21 10-45l28-5c4 36 97 45 98 0-10-56-113-15-118-90-4-57 82-63 122-42 12 7 21 19 24 35" id="aW"/><path fill="#a9afb8" d="M108 0H70L1-190h34L89-25l56-165h34" id="aX"/><g id="F"><use transform="matrix(0.04248971193415638,0,0,0.04248971193415638,0,0)" xlink:href="#aU"/><use transform="matrix(0.04248971193415638,0,0,0.04248971193415638,10.19753086419753,0)" xlink:href="#aV"/><use transform="matrix(0.04248971193415638,0,0,0.04248971193415638,18.695473251028805,0)" xlink:href="#aW"/><use transform="matrix(0.04248971193415638,0,0,0.04248971193415638,26.343621399176953,0)" xlink:href="#aP"/><use transform="matrix(0.04248971193415638,0,0,0.04248971193415638,30.59259259259259,0)" xlink:href="#aT"/><use transform="matrix(0.04248971193415638,0,0,0.04248971193415638,39.090534979423865,0)" xlink:href="#aV"/><use transform="matrix(0.04248971193415638,0,0,0.04248971193415638,47.58847736625514,0)" xlink:href="#aX"/></g><path fill="#a9afb8" d="M32 76v-337h29V76H32" id="aY"/><use transform="matrix(0.04248971193415638,0,0,0.04248971193415638,0,0)" xlink:href="#aY" id="G"/><path fill="#a9afb8" d="M210-169c-67 3-38 105-44 169h-31v-121c0-29-5-50-35-48C34-165 62-65 56 0H25l-1-190h30c1 10-1 24 2 32 10-44 99-50 107 0 11-21 27-35 58-36 85-2 47 119 55 194h-31v-121c0-29-5-49-35-48" id="aZ"/><path fill="#a9afb8" d="M115-194c53 0 69 39 70 98 0 66-23 100-70 100C84 3 66-7 56-30L54 0H23l1-261h32v101c10-23 28-34 59-34zm-8 174c40 0 45-34 45-75 0-40-5-75-45-74-42 0-51 32-51 76 0 43 10 73 51 73" id="ba"/><path fill="#a9afb8" d="M114-163C36-179 61-72 57 0H25l-1-190h30c1 12-1 29 2 39 6-27 23-49 58-41v29" id="bb"/><g id="H"><use transform="matrix(0.04248971193415638,0,0,0.04248971193415638,0,0)" xlink:href="#aO"/><use transform="matrix(0.04248971193415638,0,0,0.04248971193415638,10.19753086419753,0)" xlink:href="#aQ"/><use transform="matrix(0.04248971193415638,0,0,0.04248971193415638,18.695473251028805,0)" xlink:href="#aR"/><use transform="matrix(0.04248971193415638,0,0,0.04248971193415638,27.193415637860078,0)" xlink:href="#aP"/><use transform="matrix(0.04248971193415638,0,0,0.04248971193415638,31.442386831275712,0)" xlink:href="#aQ"/><use transform="matrix(0.04248971193415638,0,0,0.04248971193415638,39.94032921810699,0)" xlink:href="#aZ"/><use transform="matrix(0.04248971193415638,0,0,0.04248971193415638,52.64475308641975,0)" xlink:href="#ba"/><use transform="matrix(0.04248971193415638,0,0,0.04248971193415638,61.142695473251024,0)" xlink:href="#aQ"/><use transform="matrix(0.04248971193415638,0,0,0.04248971193415638,69.6406378600823,0)" xlink:href="#bb"/></g><path fill="#a9afb8" d="M27 0v-27h64v-190l-56 39v-29l58-41h29v221h61V0H27" id="bc"/><path fill="#a9afb8" d="M126-127c33 6 58 20 58 59 0 88-139 92-164 29-3-8-5-16-6-25l32-3c6 27 21 44 54 44 32 0 52-15 52-46 0-38-36-46-79-43v-28c39 1 72-4 72-42 0-27-17-43-46-43-28 0-47 15-49 41l-32-3c6-42 35-63 81-64 48-1 79 21 79 65 0 36-21 52-52 59" id="bd"/><path fill="#a9afb8" d="M68-38c1 34 0 65-14 84H32c9-13 17-26 17-46H33v-38h35" id="be"/><g id="I"><use transform="matrix(0.04248971193415638,0,0,0.04248971193415638,0,0)" xlink:href="#bc"/><use transform="matrix(0.04248971193415638,0,0,0.04248971193415638,8.497942386831275,0)" xlink:href="#bd"/><use transform="matrix(0.04248971193415638,0,0,0.04248971193415638,16.99588477366255,0)" xlink:href="#be"/></g><path fill="#a9afb8" d="M101-251c82-7 93 87 43 132L82-64C71-53 59-42 53-27h129V0H18c2-99 128-94 128-182 0-28-16-43-45-43s-46 15-49 41l-32-3c6-41 34-60 81-64" id="bf"/><path fill="#a9afb8" d="M101-251c68 0 85 55 85 127S166 4 100 4C33 4 14-52 14-124c0-73 17-127 87-127zm-1 229c47 0 54-49 54-102s-4-102-53-102c-51 0-55 48-55 102 0 53 5 102 54 102" id="bg"/><g id="J"><use transform="matrix(0.04248971193415638,0,0,0.04248971193415638,0,0)" xlink:href="#bf"/><use transform="matrix(0.04248971193415638,0,0,0.04248971193415638,8.497942386831275,0)" xlink:href="#bg"/><use transform="matrix(0.04248971193415638,0,0,0.04248971193415638,16.99588477366255,0)" xlink:href="#bf"/><use transform="matrix(0.04248971193415638,0,0,0.04248971193415638,25.493827160493822,0)" xlink:href="#bd"/></g><g id="K"><use transform="matrix(0.05,0,0,0.05,0,0)" xlink:href="#U"/><use transform="matrix(0.05,0,0,0.05,9,0)" xlink:href="#V"/><use transform="matrix(0.05,0,0,0.05,19,0)" xlink:href="#ag"/><use transform="matrix(0.05,0,0,0.05,24.95,0)" xlink:href="#af"/><use transform="matrix(0.05,0,0,0.05,34.95,0)" xlink:href="#W"/></g><g id="L"><use transform="matrix(0.05,0,0,0.05,0,0)" xlink:href="#ab"/><use transform="matrix(0.05,0,0,0.05,10,0)" xlink:href="#at"/><use transform="matrix(0.05,0,0,0.05,20,0)" xlink:href="#Z"/><use transform="matrix(0.05,0,0,0.05,34.95,0)" xlink:href="#aj"/><use transform="matrix(0.05,0,0,0.05,44.95,0)" xlink:href="#ac"/><use transform="matrix(0.05,0,0,0.05,54.95,0)" xlink:href="#ag"/></g><g id="M"><use transform="matrix(0.05,0,0,0.05,0,0)" xlink:href="#aa"/><use transform="matrix(0.05,0,0,0.05,3.95,0)" xlink:href="#W"/><use transform="matrix(0.05,0,0,0.05,12.949999999999998,0)" xlink:href="#Y"/><use transform="matrix(0.05,0,0,0.05,22.95,0)" xlink:href="#U"/><use transform="matrix(0.05,0,0,0.05,31.950000000000003,0)" xlink:href="#ag"/><use transform="matrix(0.05,0,0,0.05,37.9,0)" xlink:href="#ac"/><use transform="matrix(0.05,0,0,0.05,47.9,0)" xlink:href="#af"/><use transform="matrix(0.05,0,0,0.05,57.900000000000006,0)" xlink:href="#aa"/><use transform="matrix(0.05,0,0,0.05,61.85,0)" xlink:href="#al"/></g><g id="N"><use transform="matrix(0.05,0,0,0.05,0,0)" xlink:href="#aj"/><use transform="matrix(0.05,0,0,0.05,10,0)" xlink:href="#V"/><use transform="matrix(0.05,0,0,0.05,20,0)" xlink:href="#ah"/><use transform="matrix(0.05,0,0,0.05,23.95,0)" xlink:href="#V"/><use transform="matrix(0.05,0,0,0.05,33.95,0)" xlink:href="#ab"/><use transform="matrix(0.05,0,0,0.05,43.95,0)" xlink:href="#U"/><use transform="matrix(0.05,0,0,0.05,52.95,0)" xlink:href="#ac"/></g><g id="O"><use transform="matrix(0.05,0,0,0.05,0,0)" xlink:href="#ag"/><use transform="matrix(0.05,0,0,0.05,5.95,0)" xlink:href="#ac"/><use transform="matrix(0.05,0,0,0.05,15.949999999999998,0)" xlink:href="#ah"/><use transform="matrix(0.05,0,0,0.05,19.9,0)" xlink:href="#ac"/><use transform="matrix(0.05,0,0,0.05,29.899999999999995,0)" xlink:href="#V"/><use transform="matrix(0.05,0,0,0.05,39.9,0)" xlink:href="#W"/><use transform="matrix(0.05,0,0,0.05,48.9,0)" xlink:href="#ac"/><use transform="matrix(0.05,0,0,0.05,58.900000000000006,0)" xlink:href="#Y"/><use transform="matrix(0.05,0,0,0.05,68.9,0)" xlink:href="#af"/><use transform="matrix(0.05,0,0,0.05,78.9,0)" xlink:href="#V"/><use transform="matrix(0.05,0,0,0.05,88.9,0)" xlink:href="#al"/><use transform="matrix(0.05,0,0,0.05,93.9,0)" xlink:href="#ac"/></g><g id="P"><use transform="matrix(0.05,0,0,0.05,0,0)" xlink:href="#ag"/><use transform="matrix(0.05,0,0,0.05,5.95,0)" xlink:href="#ac"/><use transform="matrix(0.05,0,0,0.05,15.949999999999998,0)" xlink:href="#am"/><use transform="matrix(0.05,0,0,0.05,25.950000000000003,0)" xlink:href="#V"/><use transform="matrix(0.05,0,0,0.05,35.95,0)" xlink:href="#aa"/><use transform="matrix(0.05,0,0,0.05,39.900000000000006,0)" xlink:href="#ag"/><use transform="matrix(0.05,0,0,0.05,45.85000000000001,0)" xlink:href="#ac"/><use transform="matrix(0.05,0,0,0.05,55.85,0)" xlink:href="#ag"/><use transform="matrix(0.05,0,0,0.05,61.80000000000001,0)" xlink:href="#W"/></g><path fill="#333" d="M76-167L44 0H12l33-167H18l4-23h27c3-47 25-81 82-69l-4 24c-35-8-44 15-46 45h37l-5 23H76" id="bh"/><g id="Q"><use transform="matrix(0.05,0,0,0.05,0,0)" xlink:href="#bh"/><use transform="matrix(0.05,0,0,0.05,5,0)" xlink:href="#at"/><use transform="matrix(0.05,0,0,0.05,15,0)" xlink:href="#ah"/><use transform="matrix(0.05,0,0,0.05,18.95,0)" xlink:href="#ah"/><use transform="matrix(0.05,0,0,0.05,22.9,0)" xlink:href="#Y"/><use transform="matrix(0.05,0,0,0.05,32.9,0)" xlink:href="#ab"/><use transform="matrix(0.05,0,0,0.05,42.9,0)" xlink:href="#V"/><use transform="matrix(0.05,0,0,0.05,52.900000000000006,0)" xlink:href="#Z"/><use transform="matrix(0.05,0,0,0.05,67.85,0)" xlink:href="#ac"/></g><path fill="#333" d="M103-194c29 0 47 14 56 36 2-11 5-23 8-32h30L160-5C157 61 82 97 21 62 9 55 4 45 1 30l28-7c7 42 83 31 92-3 4-16 9-38 13-55-13 20-29 36-62 36-40 0-60-25-60-64 0-71 23-131 91-131zm4 24c-53 0-58 54-61 104-2 27 10 44 36 44 49 0 65-50 67-102 1-29-15-46-42-46" id="bi"/><g id="R"><use transform="matrix(0.05,0,0,0.05,0,0)" xlink:href="#V"/><use transform="matrix(0.05,0,0,0.05,10,0)" xlink:href="#bi"/><use transform="matrix(0.05,0,0,0.05,20,0)" xlink:href="#ac"/></g><g id="S"><use transform="matrix(0.05,0,0,0.05,0,0)" xlink:href="#U"/><use transform="matrix(0.05,0,0,0.05,9,0)" xlink:href="#an"/><use transform="matrix(0.05,0,0,0.05,19,0)" xlink:href="#at"/><use transform="matrix(0.05,0,0,0.05,29,0)" xlink:href="#ab"/><use transform="matrix(0.05,0,0,0.05,39,0)" xlink:href="#al"/><use transform="matrix(0.05,0,0,0.05,44,0)" xlink:href="#ag"/><use transform="matrix(0.05,0,0,0.05,49.95,0)" xlink:href="#au"/></g><g id="T"><use transform="matrix(0.05,0,0,0.05,0,0)" xlink:href="#W"/><use transform="matrix(0.05,0,0,0.05,9,0)" xlink:href="#V"/><use transform="matrix(0.05,0,0,0.05,19,0)" xlink:href="#ah"/><use transform="matrix(0.05,0,0,0.05,22.95,0)" xlink:href="#V"/><use transform="matrix(0.05,0,0,0.05,32.95,0)" xlink:href="#ag"/><use transform="matrix(0.05,0,0,0.05,38.900000000000006,0)" xlink:href="#au"/></g></defs></g></svg>